<svg width="170" height="170" viewBox="0 0 170 170" fill="none" xmlns="http://www.w3.org/2000/svg">
<circle cx="85" cy="85" r="80" stroke="#FF0000" stroke-width="10"/>
<circle cx="85" cy="85" r="70" stroke="#001AFF" stroke-width="10"/>
<circle cx="84" cy="85" r="60" stroke="#14FF00" stroke-width="10"/>
<path d="M77.4366 70H75.6752C75.5711 69.4934 75.3888 69.0483 75.1284 68.6648C74.8727 68.2812 74.5602 67.9593 74.1909 67.6989C73.8263 67.4337 73.4215 67.2348 72.9764 67.1023C72.5313 66.9697 72.0673 66.9034 71.5843 66.9034C70.7037 66.9034 69.9058 67.1259 69.1909 67.571C68.4806 68.0161 67.9148 68.6719 67.4934 69.5384C67.0768 70.4048 66.8684 71.4678 66.8684 72.7273C66.8684 73.9867 67.0768 75.0497 67.4934 75.9162C67.9148 76.7827 68.4806 77.4384 69.1909 77.8835C69.9058 78.3286 70.7037 78.5511 71.5843 78.5511C72.0673 78.5511 72.5313 78.4848 72.9764 78.3523C73.4215 78.2197 73.8263 78.0232 74.1909 77.7628C74.5602 77.4976 74.8727 77.1733 75.1284 76.7898C75.3888 76.4015 75.5711 75.9564 75.6752 75.4545H77.4366C77.304 76.1979 77.0626 76.8632 76.7122 77.4503C76.3618 78.0374 75.9262 78.5369 75.4054 78.9489C74.8845 79.3561 74.2998 79.6662 73.6511 79.8793C73.0072 80.0923 72.3182 80.1989 71.5843 80.1989C70.3438 80.1989 69.2406 79.8958 68.2747 79.2898C67.3088 78.6837 66.5488 77.822 65.9949 76.7045C65.4409 75.5871 65.1639 74.2614 65.1639 72.7273C65.1639 71.1932 65.4409 69.8674 65.9949 68.75C66.5488 67.6326 67.3088 66.7708 68.2747 66.1648C69.2406 65.5587 70.3438 65.2557 71.5843 65.2557C72.3182 65.2557 73.0072 65.3622 73.6511 65.5753C74.2998 65.7884 74.8845 66.1009 75.4054 66.5128C75.9262 66.92 76.3618 67.4171 76.7122 68.0043C77.0626 68.5866 77.304 69.2519 77.4366 70ZM88.2374 69.0909C88.1522 68.3712 87.8065 67.8125 87.2005 67.4148C86.5944 67.017 85.851 66.8182 84.9703 66.8182C84.3264 66.8182 83.763 66.9223 83.28 67.1307C82.8018 67.339 82.4277 67.6255 82.1578 67.9901C81.8927 68.3546 81.7601 68.7689 81.7601 69.233C81.7601 69.6212 81.8525 69.955 82.0371 70.2344C82.2265 70.509 82.468 70.7386 82.7615 70.9233C83.0551 71.1032 83.3629 71.2524 83.6848 71.3707C84.0068 71.4844 84.3027 71.5767 84.5726 71.6477L86.0499 72.0455C86.4287 72.1449 86.8501 72.2822 87.3141 72.4574C87.7828 72.6326 88.2303 72.8717 88.6564 73.1747C89.0873 73.473 89.4424 73.8565 89.7218 74.3253C90.0011 74.794 90.1408 75.3693 90.1408 76.0511C90.1408 76.8371 89.9348 77.5473 89.5229 78.1818C89.1157 78.8163 88.5191 79.3205 87.7331 79.6946C86.9519 80.0687 86.0025 80.2557 84.8851 80.2557C83.8435 80.2557 82.9415 80.0876 82.1792 79.7514C81.4216 79.4152 80.825 78.9465 80.3894 78.3452C79.9585 77.7438 79.7147 77.0455 79.6578 76.25H81.476C81.5234 76.7992 81.708 77.2538 82.03 77.6136C82.3567 77.9687 82.7686 78.2339 83.2658 78.4091C83.7677 78.5795 84.3075 78.6648 84.8851 78.6648C85.5575 78.6648 86.1612 78.5559 86.6962 78.3381C87.2312 78.1155 87.655 77.8078 87.9675 77.4148C88.28 77.017 88.4363 76.553 88.4363 76.0227C88.4363 75.5398 88.3013 75.1468 88.0314 74.8438C87.7615 74.5407 87.4064 74.2945 86.9661 74.1051C86.5257 73.9157 86.0499 73.75 85.5385 73.608L83.7488 73.0966C82.6124 72.7699 81.7128 72.3035 81.0499 71.6974C80.387 71.0914 80.0556 70.2983 80.0556 69.3182C80.0556 68.5038 80.2757 67.7936 80.7161 67.1875C81.1612 66.5767 81.7578 66.1032 82.5059 65.767C83.2587 65.4261 84.0991 65.2557 85.0272 65.2557C85.9647 65.2557 86.798 65.4238 87.5272 65.7599C88.2563 66.0914 88.834 66.5459 89.2601 67.1236C89.691 67.7012 89.9183 68.357 89.9419 69.0909H88.2374ZM100.991 69.0909C100.906 68.3712 100.56 67.8125 99.9544 67.4148C99.3483 67.017 98.6049 66.8182 97.7243 66.8182C97.0803 66.8182 96.5169 66.9223 96.0339 67.1307C95.5557 67.339 95.1816 67.6255 94.9118 67.9901C94.6466 68.3546 94.514 68.7689 94.514 69.233C94.514 69.6212 94.6064 69.955 94.791 70.2344C94.9804 70.509 95.2219 70.7386 95.5154 70.9233C95.809 71.1032 96.1168 71.2524 96.4387 71.3707C96.7607 71.4844 97.0566 71.5767 97.3265 71.6477L98.8038 72.0455C99.1826 72.1449 99.604 72.2822 100.068 72.4574C100.537 72.6326 100.984 72.8717 101.41 73.1747C101.841 73.473 102.196 73.8565 102.476 74.3253C102.755 74.794 102.895 75.3693 102.895 76.0511C102.895 76.8371 102.689 77.5473 102.277 78.1818C101.87 78.8163 101.273 79.3205 100.487 79.6946C99.7058 80.0687 98.7565 80.2557 97.639 80.2557C96.5974 80.2557 95.6954 80.0876 94.9331 79.7514C94.1755 79.4152 93.5789 78.9465 93.1433 78.3452C92.7124 77.7438 92.4686 77.0455 92.4118 76.25H94.2299C94.2773 76.7992 94.4619 77.2538 94.7839 77.6136C95.1106 77.9687 95.5225 78.2339 96.0197 78.4091C96.5216 78.5795 97.0614 78.6648 97.639 78.6648C98.3114 78.6648 98.9151 78.5559 99.4501 78.3381C99.9851 78.1155 100.409 77.8078 100.721 77.4148C101.034 77.017 101.19 76.553 101.19 76.0227C101.19 75.5398 101.055 75.1468 100.785 74.8438C100.515 74.5407 100.16 74.2945 99.72 74.1051C99.2797 73.9157 98.8038 73.75 98.2924 73.608L96.5027 73.0966C95.3663 72.7699 94.4667 72.3035 93.8038 71.6974C93.1409 71.0914 92.8095 70.2983 92.8095 69.3182C92.8095 68.5038 93.0297 67.7936 93.47 67.1875C93.9151 66.5767 94.5117 66.1032 95.2598 65.767C96.0126 65.4261 96.853 65.2557 97.7811 65.2557C98.7186 65.2557 99.5519 65.4238 100.281 65.7599C101.01 66.0914 101.588 66.5459 102.014 67.1236C102.445 67.7012 102.672 68.357 102.696 69.0909H100.991ZM69.6783 104.199C68.7408 104.199 67.9051 104.038 67.1712 103.716C66.442 103.394 65.862 102.946 65.4311 102.374C65.005 101.796 64.773 101.126 64.7351 100.364H66.5249C66.5627 100.832 66.7237 101.237 67.0078 101.578C67.2919 101.914 67.6636 102.175 68.1229 102.359C68.5821 102.544 69.0911 102.636 69.6499 102.636C70.2749 102.636 70.8288 102.527 71.3118 102.31C71.7947 102.092 72.1735 101.789 72.4482 101.401C72.7228 101.012 72.8601 100.562 72.8601 100.051C72.8601 99.5161 72.7275 99.045 72.4624 98.6378C72.1972 98.2259 71.8089 97.9039 71.2976 97.6719C70.7862 97.4399 70.1612 97.3239 69.4226 97.3239H68.2578V95.7614H69.4226C70.0002 95.7614 70.5069 95.6572 70.9425 95.4489C71.3828 95.2405 71.7261 94.947 71.9723 94.5682C72.2232 94.1894 72.3487 93.7443 72.3487 93.233C72.3487 92.7405 72.2398 92.312 72.022 91.9474C71.8042 91.5829 71.4964 91.2988 71.0987 91.0952C70.7057 90.8916 70.2417 90.7898 69.7067 90.7898C69.2048 90.7898 68.7313 90.8821 68.2862 91.0668C67.8459 91.2467 67.486 91.5095 67.2067 91.8551C66.9273 92.196 66.7758 92.608 66.7521 93.0909H65.0476C65.076 92.3286 65.3056 91.661 65.7365 91.0881C66.1674 90.5104 66.7308 90.0606 67.4268 89.7386C68.1276 89.4167 68.897 89.2557 69.7351 89.2557C70.6347 89.2557 71.4065 89.438 72.0504 89.8026C72.6944 90.1624 73.1892 90.6383 73.5348 91.2301C73.8804 91.822 74.0533 92.4612 74.0533 93.1477C74.0533 93.9669 73.8378 94.6652 73.407 95.2429C72.9808 95.8205 72.4008 96.2206 71.6669 96.4432V96.5568C72.5855 96.7083 73.3028 97.099 73.8189 97.7287C74.335 98.3537 74.593 99.1278 74.593 100.051C74.593 100.842 74.3776 101.552 73.9467 102.182C73.5206 102.807 72.9382 103.299 72.1996 103.659C71.4609 104.019 70.6205 104.199 69.6783 104.199ZM82.2422 104.199C81.1721 104.199 80.2607 103.908 79.5078 103.325C78.755 102.738 78.1797 101.888 77.782 100.776C77.3842 99.6581 77.1854 98.3087 77.1854 96.7273C77.1854 95.1553 77.3842 93.813 77.782 92.7003C78.1844 91.5829 78.7621 90.7306 79.5149 90.1435C80.2725 89.5516 81.1816 89.2557 82.2422 89.2557C83.3028 89.2557 84.2095 89.5516 84.9624 90.1435C85.7199 90.7306 86.2976 91.5829 86.6953 92.7003C87.0978 93.813 87.299 95.1553 87.299 96.7273C87.299 98.3087 87.1001 99.6581 86.7024 100.776C86.3047 101.888 85.7294 102.738 84.9766 103.325C84.2237 103.908 83.3123 104.199 82.2422 104.199ZM82.2422 102.636C83.3028 102.636 84.1267 102.125 84.7138 101.102C85.3009 100.08 85.5945 98.6212 85.5945 96.7273C85.5945 95.4678 85.4595 94.3954 85.1896 93.5099C84.9245 92.6245 84.541 91.9498 84.0391 91.4858C83.5419 91.0218 82.9429 90.7898 82.2422 90.7898C81.1911 90.7898 80.3696 91.3082 79.7777 92.3452C79.1858 93.3774 78.8899 94.8381 78.8899 96.7273C78.8899 97.9867 79.0225 99.0568 79.2876 99.9375C79.5528 100.818 79.9339 101.488 80.4311 101.947C80.933 102.407 81.5367 102.636 82.2422 102.636ZM97.4126 101.273V100.506C97.4126 99.9754 97.5215 99.4901 97.7393 99.0497C97.9619 98.6046 98.2839 98.2495 98.7053 97.9844C99.1314 97.7145 99.6475 97.5795 100.254 97.5795C100.869 97.5795 101.385 97.7145 101.802 97.9844C102.219 98.2495 102.533 98.6046 102.746 99.0497C102.96 99.4901 103.066 99.9754 103.066 100.506V101.273C103.066 101.803 102.957 102.291 102.739 102.736C102.526 103.176 102.209 103.531 101.788 103.801C101.371 104.066 100.86 104.199 100.254 104.199C99.638 104.199 99.1196 104.066 98.6982 103.801C98.2768 103.531 97.9571 103.176 97.7393 102.736C97.5215 102.291 97.4126 101.803 97.4126 101.273ZM98.8615 100.506V101.273C98.8615 101.713 98.9657 102.108 99.174 102.459C99.3823 102.804 99.7422 102.977 100.254 102.977C100.751 102.977 101.101 102.804 101.305 102.459C101.513 102.108 101.617 101.713 101.617 101.273V100.506C101.617 100.065 101.518 99.6723 101.319 99.3267C101.12 98.9763 100.765 98.8011 100.254 98.8011C99.7564 98.8011 99.3989 98.9763 99.1811 99.3267C98.968 99.6723 98.8615 100.065 98.8615 100.506ZM90.1683 92.9489V92.1818C90.1683 91.6515 90.2772 91.1662 90.495 90.7259C90.7176 90.2808 91.0395 89.9257 91.4609 89.6605C91.8871 89.3906 92.4032 89.2557 93.0092 89.2557C93.6248 89.2557 94.1409 89.3906 94.5575 89.6605C94.9742 89.9257 95.2891 90.2808 95.5021 90.7259C95.7152 91.1662 95.8217 91.6515 95.8217 92.1818V92.9489C95.8217 93.4792 95.7128 93.9669 95.495 94.4119C95.282 94.8523 94.9647 95.2074 94.5433 95.4773C94.1267 95.7424 93.6153 95.875 93.0092 95.875C92.3937 95.875 91.8752 95.7424 91.4538 95.4773C91.0324 95.2074 90.7128 94.8523 90.495 94.4119C90.2772 93.9669 90.1683 93.4792 90.1683 92.9489ZM91.6172 92.1818V92.9489C91.6172 93.3892 91.7214 93.7846 91.9297 94.1349C92.138 94.4806 92.4979 94.6534 93.0092 94.6534C93.5064 94.6534 93.8568 94.4806 94.0604 94.1349C94.2687 93.7846 94.3729 93.3892 94.3729 92.9489V92.1818C94.3729 91.7415 94.2734 91.3485 94.0746 91.0028C93.8757 90.6525 93.5206 90.4773 93.0092 90.4773C92.5121 90.4773 92.1546 90.6525 91.9368 91.0028C91.7237 91.3485 91.6172 91.7415 91.6172 92.1818ZM90.7081 104L100.708 89.4545H102.327L92.3274 104H90.7081Z" fill="white"/>
</svg>
