<svg width="170" height="170" viewBox="0 0 170 170" fill="none" xmlns="http://www.w3.org/2000/svg">
<circle cx="85" cy="85" r="80" stroke="#FF0000" stroke-width="10"/>
<circle cx="85" cy="85" r="70" stroke="#001AFF" stroke-width="10"/>
<circle cx="84" cy="85" r="60" stroke="#14FF00" stroke-width="10"/>
<path d="M57.9215 80V65.4545H59.6829V71.9318H67.4386V65.4545H69.1999V80H67.4386V73.4943H59.6829V80H57.9215ZM71.9308 67.017V65.4545H82.8398V67.017H78.266V80H76.5046V67.017H71.9308ZM85.5582 65.4545H87.6605L92.6037 77.5284H92.7741L97.7173 65.4545H99.8196V80H98.1719V68.9489H98.0298L93.4844 80H91.8935L87.348 68.9489H87.206V80H85.5582V65.4545ZM103.351 80V65.4545H105.113V78.4375H111.874V80H103.351ZM70.1783 104.199C69.2408 104.199 68.4051 104.038 67.6712 103.716C66.942 103.394 66.362 102.946 65.9311 102.374C65.505 101.796 65.273 101.126 65.2351 100.364H67.0249C67.0627 100.832 67.2237 101.237 67.5078 101.578C67.7919 101.914 68.1636 102.175 68.6229 102.359C69.0821 102.544 69.5911 102.636 70.1499 102.636C70.7749 102.636 71.3288 102.527 71.8118 102.31C72.2947 102.092 72.6735 101.789 72.9482 101.401C73.2228 101.012 73.3601 100.562 73.3601 100.051C73.3601 99.5161 73.2275 99.045 72.9624 98.6378C72.6972 98.2259 72.3089 97.9039 71.7976 97.6719C71.2862 97.4399 70.6612 97.3239 69.9226 97.3239H68.7578V95.7614H69.9226C70.5002 95.7614 71.0069 95.6572 71.4425 95.4489C71.8828 95.2405 72.2261 94.947 72.4723 94.5682C72.7232 94.1894 72.8487 93.7443 72.8487 93.233C72.8487 92.7405 72.7398 92.312 72.522 91.9474C72.3042 91.5829 71.9964 91.2988 71.5987 91.0952C71.2057 90.8916 70.7417 90.7898 70.2067 90.7898C69.7048 90.7898 69.2313 90.8821 68.7862 91.0668C68.3459 91.2467 67.986 91.5095 67.7067 91.8551C67.4273 92.196 67.2758 92.608 67.2521 93.0909H65.5476C65.576 92.3286 65.8056 91.661 66.2365 91.0881C66.6674 90.5104 67.2308 90.0606 67.9268 89.7386C68.6276 89.4167 69.397 89.2557 70.2351 89.2557C71.1347 89.2557 71.9065 89.438 72.5504 89.8026C73.1944 90.1624 73.6892 90.6383 74.0348 91.2301C74.3804 91.822 74.5533 92.4612 74.5533 93.1477C74.5533 93.9669 74.3378 94.6652 73.907 95.2429C73.4808 95.8205 72.9008 96.2206 72.1669 96.4432V96.5568C73.0855 96.7083 73.8028 97.099 74.3189 97.7287C74.835 98.3537 75.093 99.1278 75.093 100.051C75.093 100.842 74.8776 101.552 74.4467 102.182C74.0206 102.807 73.4382 103.299 72.6996 103.659C71.9609 104.019 71.1205 104.199 70.1783 104.199ZM82.7422 104.199C81.6721 104.199 80.7607 103.908 80.0078 103.325C79.255 102.738 78.6797 101.888 78.282 100.776C77.8842 99.6581 77.6854 98.3087 77.6854 96.7273C77.6854 95.1553 77.8842 93.813 78.282 92.7003C78.6844 91.5829 79.2621 90.7306 80.0149 90.1435C80.7725 89.5516 81.6816 89.2557 82.7422 89.2557C83.8028 89.2557 84.7095 89.5516 85.4624 90.1435C86.2199 90.7306 86.7976 91.5829 87.1953 92.7003C87.5978 93.813 87.799 95.1553 87.799 96.7273C87.799 98.3087 87.6001 99.6581 87.2024 100.776C86.8047 101.888 86.2294 102.738 85.4766 103.325C84.7237 103.908 83.8123 104.199 82.7422 104.199ZM82.7422 102.636C83.8028 102.636 84.6267 102.125 85.2138 101.102C85.8009 100.08 86.0945 98.6212 86.0945 96.7273C86.0945 95.4678 85.9595 94.3954 85.6896 93.5099C85.4245 92.6245 85.041 91.9498 84.5391 91.4858C84.0419 91.0218 83.4429 90.7898 82.7422 90.7898C81.6911 90.7898 80.8696 91.3082 80.2777 92.3452C79.6858 93.3774 79.3899 94.8381 79.3899 96.7273C79.3899 97.9867 79.5225 99.0568 79.7876 99.9375C80.0528 100.818 80.4339 101.488 80.9311 101.947C81.433 102.407 82.0367 102.636 82.7422 102.636ZM97.9126 101.273V100.506C97.9126 99.9754 98.0215 99.4901 98.2393 99.0497C98.4619 98.6046 98.7839 98.2495 99.2053 97.9844C99.6314 97.7145 100.147 97.5795 100.754 97.5795C101.369 97.5795 101.885 97.7145 102.302 97.9844C102.719 98.2495 103.033 98.6046 103.246 99.0497C103.46 99.4901 103.566 99.9754 103.566 100.506V101.273C103.566 101.803 103.457 102.291 103.239 102.736C103.026 103.176 102.709 103.531 102.288 103.801C101.871 104.066 101.36 104.199 100.754 104.199C100.138 104.199 99.6196 104.066 99.1982 103.801C98.7768 103.531 98.4571 103.176 98.2393 102.736C98.0215 102.291 97.9126 101.803 97.9126 101.273ZM99.3615 100.506V101.273C99.3615 101.713 99.4657 102.108 99.674 102.459C99.8823 102.804 100.242 102.977 100.754 102.977C101.251 102.977 101.601 102.804 101.805 102.459C102.013 102.108 102.117 101.713 102.117 101.273V100.506C102.117 100.065 102.018 99.6723 101.819 99.3267C101.62 98.9763 101.265 98.8011 100.754 98.8011C100.256 98.8011 99.8989 98.9763 99.6811 99.3267C99.468 99.6723 99.3615 100.065 99.3615 100.506ZM90.6683 92.9489V92.1818C90.6683 91.6515 90.7772 91.1662 90.995 90.7259C91.2176 90.2808 91.5395 89.9257 91.9609 89.6605C92.3871 89.3906 92.9032 89.2557 93.5092 89.2557C94.1248 89.2557 94.6409 89.3906 95.0575 89.6605C95.4742 89.9257 95.7891 90.2808 96.0021 90.7259C96.2152 91.1662 96.3217 91.6515 96.3217 92.1818V92.9489C96.3217 93.4792 96.2128 93.9669 95.995 94.4119C95.782 94.8523 95.4647 95.2074 95.0433 95.4773C94.6267 95.7424 94.1153 95.875 93.5092 95.875C92.8937 95.875 92.3752 95.7424 91.9538 95.4773C91.5324 95.2074 91.2128 94.8523 90.995 94.4119C90.7772 93.9669 90.6683 93.4792 90.6683 92.9489ZM92.1172 92.1818V92.9489C92.1172 93.3892 92.2214 93.7846 92.4297 94.1349C92.638 94.4806 92.9979 94.6534 93.5092 94.6534C94.0064 94.6534 94.3568 94.4806 94.5604 94.1349C94.7687 93.7846 94.8729 93.3892 94.8729 92.9489V92.1818C94.8729 91.7415 94.7734 91.3485 94.5746 91.0028C94.3757 90.6525 94.0206 90.4773 93.5092 90.4773C93.0121 90.4773 92.6546 90.6525 92.4368 91.0028C92.2237 91.3485 92.1172 91.7415 92.1172 92.1818ZM91.2081 104L101.208 89.4545H102.827L92.8274 104H91.2081Z" fill="white"/>
</svg>
