<svg width="170" height="170" viewBox="0 0 170 170" fill="none" xmlns="http://www.w3.org/2000/svg">
<circle cx="85" cy="85" r="80" stroke="#FF0000" stroke-width="10"/>
<circle cx="85" cy="85" r="70" stroke="#001AFF" stroke-width="10"/>
<circle cx="84" cy="85" r="60" stroke="#14FF00" stroke-width="10"/>
<path d="M80.0229 65.4545H81.7843V75.8523C81.7843 76.7803 81.6138 77.5687 81.2729 78.2173C80.932 78.866 80.4514 79.3584 79.8311 79.6946C79.2109 80.0308 78.4793 80.1989 77.6365 80.1989C76.8411 80.1989 76.1332 80.0545 75.513 79.7656C74.8927 79.4721 74.405 79.0554 74.0499 78.5156C73.6948 77.9759 73.5172 77.3343 73.5172 76.5909H75.2502C75.2502 77.0028 75.352 77.3627 75.5556 77.6705C75.7639 77.9735 76.048 78.2102 76.4078 78.3807C76.7677 78.5511 77.1773 78.6364 77.6365 78.6364C78.1432 78.6364 78.574 78.5298 78.9292 78.3168C79.2843 78.1037 79.5542 77.7912 79.7388 77.3793C79.9282 76.9626 80.0229 76.4536 80.0229 75.8523V65.4545ZM93.2686 69.0909C93.1834 68.3712 92.8378 67.8125 92.2317 67.4148C91.6257 67.017 90.8823 66.8182 90.0016 66.8182C89.3577 66.8182 88.7942 66.9223 88.3113 67.1307C87.833 67.339 87.459 67.6255 87.1891 67.9901C86.9239 68.3546 86.7914 68.7689 86.7914 69.233C86.7914 69.6212 86.8837 69.955 87.0684 70.2344C87.2578 70.509 87.4992 70.7386 87.7928 70.9233C88.0864 71.1032 88.3941 71.2524 88.7161 71.3707C89.0381 71.4844 89.334 71.5767 89.6039 71.6477L91.0811 72.0455C91.4599 72.1449 91.8813 72.2822 92.3453 72.4574C92.8141 72.6326 93.2615 72.8717 93.6877 73.1747C94.1185 73.473 94.4737 73.8565 94.753 74.3253C95.0324 74.794 95.1721 75.3693 95.1721 76.0511C95.1721 76.8371 94.9661 77.5473 94.5542 78.1818C94.147 78.8163 93.5504 79.3205 92.7644 79.6946C91.9831 80.0687 91.0338 80.2557 89.9164 80.2557C88.8747 80.2557 87.9727 80.0876 87.2104 79.7514C86.4528 79.4152 85.8562 78.9465 85.4206 78.3452C84.9898 77.7438 84.7459 77.0455 84.6891 76.25H86.5073C86.5546 76.7992 86.7393 77.2538 87.0613 77.6136C87.388 77.9687 87.7999 78.2339 88.2971 78.4091C88.7989 78.5795 89.3387 78.6648 89.9164 78.6648C90.5887 78.6648 91.1924 78.5559 91.7275 78.3381C92.2625 78.1155 92.6863 77.8078 92.9988 77.4148C93.3113 77.017 93.4675 76.553 93.4675 76.0227C93.4675 75.5398 93.3326 75.1468 93.0627 74.8438C92.7928 74.5407 92.4377 74.2945 91.9973 74.1051C91.557 73.9157 91.0811 73.75 90.5698 73.608L88.78 73.0966C87.6436 72.7699 86.744 72.3035 86.0811 71.6974C85.4183 71.0914 85.0868 70.2983 85.0868 69.3182C85.0868 68.5038 85.307 67.7936 85.7473 67.1875C86.1924 66.5767 86.789 66.1032 87.5371 65.767C88.29 65.4261 89.1304 65.2557 90.0584 65.2557C90.9959 65.2557 91.8292 65.4238 92.5584 65.7599C93.2876 66.0914 93.8652 66.5459 94.2914 67.1236C94.7222 67.7012 94.9495 68.357 94.9732 69.0909H93.2686ZM44.2301 104V89.4545H49.3153C50.3286 89.4545 51.1643 89.6297 51.8224 89.9801C52.4806 90.3258 52.9706 90.7921 53.2926 91.3793C53.6146 91.9616 53.7756 92.608 53.7756 93.3182C53.7756 93.9432 53.6643 94.4593 53.4418 94.8665C53.224 95.2737 52.9351 95.5956 52.5753 95.8324C52.2202 96.0691 51.8343 96.2443 51.4176 96.358V96.5C51.8627 96.5284 52.3101 96.6847 52.7599 96.9688C53.2098 97.2528 53.5862 97.66 53.8892 98.1903C54.1922 98.7206 54.3438 99.3693 54.3438 100.136C54.3438 100.866 54.178 101.521 53.8466 102.104C53.5152 102.686 52.992 103.148 52.277 103.489C51.562 103.83 50.6316 104 49.4858 104H44.2301ZM45.9915 102.438H49.4858C50.6364 102.438 51.4531 102.215 51.9361 101.77C52.4238 101.32 52.6676 100.776 52.6676 100.136C52.6676 99.6439 52.5421 99.1894 52.2912 98.7727C52.0402 98.3513 51.6828 98.0152 51.2188 97.7642C50.7547 97.5085 50.2055 97.3807 49.571 97.3807H45.9915V102.438ZM45.9915 95.8466H49.2585C49.7888 95.8466 50.267 95.7424 50.6932 95.5341C51.1241 95.3258 51.465 95.0322 51.7159 94.6534C51.9716 94.2746 52.0994 93.8295 52.0994 93.3182C52.0994 92.679 51.8769 92.1368 51.4318 91.6918C50.9867 91.242 50.2813 91.017 49.3153 91.017H45.9915V95.8466ZM61.5845 104.227C60.5334 104.227 59.6267 103.995 58.8643 103.531C58.1068 103.062 57.522 102.409 57.1101 101.571C56.7029 100.728 56.4993 99.7481 56.4993 98.6307C56.4993 97.5133 56.7029 96.5284 57.1101 95.6761C57.522 94.8191 58.0949 94.1515 58.8288 93.6733C59.5675 93.1903 60.4292 92.9489 61.4141 92.9489C61.9822 92.9489 62.5433 93.0436 63.0973 93.233C63.6513 93.4223 64.1555 93.7301 64.6101 94.1562C65.0646 94.5777 65.4268 95.1364 65.6967 95.8324C65.9666 96.5284 66.1016 97.3854 66.1016 98.4034V99.1136H57.6925V97.6648H64.397C64.397 97.0492 64.2739 96.5 64.0277 96.017C63.7862 95.5341 63.4406 95.1529 62.9908 94.8736C62.5457 94.5942 62.0201 94.4545 61.4141 94.4545C60.7464 94.4545 60.1688 94.6203 59.6811 94.9517C59.1982 95.2784 58.8265 95.7045 58.5661 96.2301C58.3056 96.7557 58.1754 97.3191 58.1754 97.9205V98.8864C58.1754 99.7102 58.3175 100.409 58.6016 100.982C58.8904 101.55 59.2905 101.983 59.8018 102.281C60.3132 102.575 60.9074 102.722 61.5845 102.722C62.0249 102.722 62.4226 102.66 62.7777 102.537C63.1375 102.409 63.4477 102.22 63.7081 101.969C63.9685 101.713 64.1697 101.396 64.3118 101.017L65.9311 101.472C65.7607 102.021 65.4742 102.504 65.0717 102.92C64.6693 103.332 64.1721 103.654 63.5803 103.886C62.9884 104.114 62.3232 104.227 61.5845 104.227ZM73.0547 108.318C72.245 108.318 71.549 108.214 70.9666 108.006C70.3842 107.802 69.8989 107.532 69.5107 107.196C69.1271 106.865 68.8217 106.509 68.5945 106.131L69.9297 105.193C70.0812 105.392 70.273 105.619 70.505 105.875C70.737 106.135 71.0542 106.36 71.4567 106.55C71.8639 106.744 72.3965 106.841 73.0547 106.841C73.9354 106.841 74.6622 106.628 75.2351 106.202C75.808 105.776 76.0945 105.108 76.0945 104.199V101.983H75.9524C75.8293 102.182 75.6541 102.428 75.4268 102.722C75.2043 103.01 74.8823 103.268 74.4609 103.496C74.0443 103.718 73.4808 103.83 72.7706 103.83C71.8899 103.83 71.0992 103.621 70.3984 103.205C69.7024 102.788 69.1508 102.182 68.7436 101.386C68.3411 100.591 68.1399 99.625 68.1399 98.4886C68.1399 97.3712 68.3364 96.3982 68.7294 95.5696C69.1224 94.7363 69.6693 94.0923 70.37 93.6378C71.0708 93.1785 71.8804 92.9489 72.799 92.9489C73.5092 92.9489 74.0727 93.0672 74.4893 93.304C74.9107 93.536 75.2327 93.8011 75.4553 94.0994C75.6825 94.393 75.8577 94.6345 75.9808 94.8239H76.1513V93.0909H77.7706V104.312C77.7706 105.25 77.5575 106.012 77.1314 106.599C76.71 107.191 76.1418 107.625 75.4268 107.899C74.7166 108.179 73.9259 108.318 73.0547 108.318ZM72.9979 102.324C73.6702 102.324 74.2384 102.17 74.7024 101.862C75.1664 101.554 75.5192 101.112 75.7607 100.534C76.0021 99.9564 76.1229 99.2652 76.1229 98.4602C76.1229 97.6742 76.0045 96.9806 75.7678 96.3793C75.531 95.7779 75.1806 95.3068 74.7166 94.9659C74.2526 94.625 73.6797 94.4545 72.9979 94.4545C72.2876 94.4545 71.6958 94.6345 71.2223 94.9943C70.7536 95.3542 70.4008 95.8371 70.1641 96.4432C69.9321 97.0492 69.8161 97.7216 69.8161 98.4602C69.8161 99.2178 69.9344 99.8878 70.1712 100.47C70.4126 101.048 70.7678 101.502 71.2365 101.834C71.71 102.161 72.2971 102.324 72.9979 102.324ZM80.8388 104V93.0909H82.5149V104H80.8388ZM81.6911 91.2727C81.3643 91.2727 81.0826 91.1615 80.8459 90.9389C80.6139 90.7164 80.4979 90.4489 80.4979 90.1364C80.4979 89.8239 80.6139 89.5563 80.8459 89.3338C81.0826 89.1113 81.3643 89 81.6911 89C82.0178 89 82.2971 89.1113 82.5291 89.3338C82.7659 89.5563 82.8842 89.8239 82.8842 90.1364C82.8842 90.4489 82.7659 90.7164 82.5291 90.9389C82.2971 91.1615 82.0178 91.2727 81.6911 91.2727ZM87.261 97.4375V104H85.5849V93.0909H87.2042V94.7955H87.3462C87.6019 94.2415 87.9902 93.7964 88.511 93.4602C89.0318 93.1193 89.7042 92.9489 90.5281 92.9489C91.2667 92.9489 91.913 93.1004 92.467 93.4034C93.021 93.7017 93.4518 94.1562 93.7596 94.767C94.0674 95.3731 94.2212 96.1402 94.2212 97.0682V104H92.5451V97.1818C92.5451 96.3248 92.3226 95.6572 91.8775 95.179C91.4324 94.696 90.8216 94.4545 90.0451 94.4545C89.5101 94.4545 89.0318 94.5705 88.6104 94.8026C88.1938 95.0346 87.8647 95.3731 87.6232 95.8182C87.3817 96.2633 87.261 96.803 87.261 97.4375ZM98.9602 97.4375V104H97.2841V93.0909H98.9034V94.7955H99.0455C99.3011 94.2415 99.6894 93.7964 100.21 93.4602C100.731 93.1193 101.403 92.9489 102.227 92.9489C102.966 92.9489 103.612 93.1004 104.166 93.4034C104.72 93.7017 105.151 94.1562 105.459 94.767C105.767 95.3731 105.92 96.1402 105.92 97.0682V104H104.244V97.1818C104.244 96.3248 104.022 95.6572 103.577 95.179C103.132 94.696 102.521 94.4545 101.744 94.4545C101.209 94.4545 100.731 94.5705 100.31 94.8026C99.893 95.0346 99.5639 95.3731 99.3224 95.8182C99.081 96.2633 98.9602 96.803 98.9602 97.4375ZM113.557 104.227C112.506 104.227 111.599 103.995 110.837 103.531C110.079 103.062 109.495 102.409 109.083 101.571C108.676 100.728 108.472 99.7481 108.472 98.6307C108.472 97.5133 108.676 96.5284 109.083 95.6761C109.495 94.8191 110.068 94.1515 110.801 93.6733C111.54 93.1903 112.402 92.9489 113.387 92.9489C113.955 92.9489 114.516 93.0436 115.07 93.233C115.624 93.4223 116.128 93.7301 116.583 94.1562C117.037 94.5777 117.4 95.1364 117.669 95.8324C117.939 96.5284 118.074 97.3854 118.074 98.4034V99.1136H109.665V97.6648H116.37C116.37 97.0492 116.247 96.5 116 96.017C115.759 95.5341 115.413 95.1529 114.963 94.8736C114.518 94.5942 113.993 94.4545 113.387 94.4545C112.719 94.4545 112.141 94.6203 111.654 94.9517C111.171 95.2784 110.799 95.7045 110.539 96.2301C110.278 96.7557 110.148 97.3191 110.148 97.9205V98.8864C110.148 99.7102 110.29 100.409 110.574 100.982C110.863 101.55 111.263 101.983 111.775 102.281C112.286 102.575 112.88 102.722 113.557 102.722C113.998 102.722 114.395 102.66 114.75 102.537C115.11 102.409 115.42 102.22 115.681 101.969C115.941 101.713 116.142 101.396 116.284 101.017L117.904 101.472C117.733 102.021 117.447 102.504 117.044 102.92C116.642 103.332 116.145 103.654 115.553 103.886C114.961 104.114 114.296 104.227 113.557 104.227ZM120.624 104V93.0909H122.243V94.7386H122.357C122.556 94.1989 122.916 93.7609 123.436 93.4247C123.957 93.0885 124.544 92.9205 125.198 92.9205C125.321 92.9205 125.475 92.9228 125.659 92.9276C125.844 92.9323 125.984 92.9394 126.078 92.9489V94.6534C126.022 94.6392 125.891 94.6179 125.688 94.5895C125.489 94.5563 125.278 94.5398 125.056 94.5398C124.525 94.5398 124.052 94.651 123.635 94.8736C123.223 95.0914 122.897 95.3944 122.655 95.7827C122.418 96.1662 122.3 96.6042 122.3 97.0966V104H120.624Z" fill="white"/>
</svg>
