<svg width="250" height="250" viewBox="0 0 250 250" fill="none" xmlns="http://www.w3.org/2000/svg">
<circle cx="125" cy="125" r="122.5" stroke="#FF0000" stroke-width="5"/>
<path d="M85.3027 211.551C85.3027 213.387 84.86 214.806 83.9746 215.809C83.0892 216.805 81.9108 217.303 80.4395 217.303C78.9225 217.303 77.7279 216.788 76.8555 215.76C75.9896 214.725 75.5566 213.322 75.5566 211.551C75.5566 209.728 76.0026 208.312 76.8945 207.303C77.793 206.294 78.9746 205.789 80.4395 205.789C81.9108 205.789 83.0892 206.294 83.9746 207.303C84.86 208.305 85.3027 209.721 85.3027 211.551ZM83.4082 211.551C83.4082 210.138 83.151 209.09 82.6367 208.406C82.1224 207.716 81.39 207.371 80.4395 207.371C79.4824 207.371 78.7435 207.716 78.2227 208.406C77.7083 209.09 77.4512 210.138 77.4512 211.551C77.4512 212.918 77.7083 213.956 78.2227 214.666C78.7435 215.369 79.4824 215.721 80.4395 215.721C81.3835 215.721 82.1126 215.376 82.627 214.686C83.1478 213.989 83.4082 212.944 83.4082 211.551ZM95.7617 217H93.9258V210.789C93.9258 210.288 93.8997 209.822 93.8477 209.393C93.8021 208.956 93.7109 208.608 93.5742 208.348C93.4245 208.074 93.2161 207.872 92.9492 207.742C92.6823 207.605 92.3177 207.537 91.8555 207.537C91.3997 207.537 90.9277 207.661 90.4395 207.908C89.9577 208.149 89.4857 208.465 89.0234 208.855V217H87.1875V206.092H89.0234V207.303C89.5703 206.814 90.1107 206.44 90.6445 206.18C91.1784 205.919 91.7415 205.789 92.334 205.789C93.4082 205.789 94.248 206.144 94.8535 206.854C95.459 207.557 95.7617 208.579 95.7617 209.92V217ZM100.215 217H98.3789V201.805H100.215V217ZM111.484 206.092L105.615 221.023H103.652L105.605 216.473L101.641 206.092H103.623L106.602 214.168L109.57 206.092H111.484ZM122.422 217.215C121.419 217.215 120.638 216.932 120.078 216.365C119.518 215.792 119.238 214.891 119.238 213.66V207.615H117.998V206.092H119.238V202.957H121.074V206.092H124.453V207.615H121.074V212.801C121.074 213.354 121.084 213.781 121.104 214.08C121.123 214.38 121.198 214.66 121.328 214.92C121.439 215.148 121.618 215.32 121.865 215.438C122.113 215.548 122.448 215.604 122.871 215.604C123.171 215.604 123.46 215.561 123.74 215.477C124.02 215.385 124.222 215.311 124.346 215.252H124.453V216.902C124.108 217 123.757 217.075 123.398 217.127C123.047 217.186 122.721 217.215 122.422 217.215ZM134.395 217H132.559V210.789C132.559 210.288 132.533 209.822 132.48 209.393C132.435 208.956 132.344 208.608 132.207 208.348C132.057 208.074 131.849 207.872 131.582 207.742C131.315 207.605 130.951 207.537 130.488 207.537C130.033 207.537 129.561 207.661 129.072 207.908C128.59 208.149 128.118 208.465 127.656 208.855V217H125.82V201.805H127.656V207.303C128.203 206.814 128.743 206.44 129.277 206.18C129.811 205.919 130.374 205.789 130.967 205.789C132.041 205.789 132.881 206.144 133.486 206.854C134.092 207.557 134.395 208.579 134.395 209.92V217ZM138.848 217H137.012V206.092H138.848V217ZM138.975 204.266H136.885V202.361H138.975V204.266ZM144.492 217.264C143.763 217.264 143.079 217.166 142.441 216.971C141.81 216.775 141.286 216.567 140.869 216.346V214.285H140.967C141.123 214.409 141.305 214.546 141.514 214.695C141.729 214.845 142.012 215.001 142.363 215.164C142.676 215.307 143.018 215.434 143.389 215.545C143.766 215.656 144.157 215.711 144.561 215.711C144.854 215.711 145.166 215.678 145.498 215.613C145.83 215.542 146.077 215.454 146.24 215.35C146.468 215.2 146.631 215.04 146.729 214.871C146.833 214.702 146.885 214.448 146.885 214.109C146.885 213.673 146.764 213.344 146.523 213.123C146.289 212.902 145.869 212.716 145.264 212.566C145.029 212.508 144.723 212.439 144.346 212.361C143.968 212.283 143.62 212.199 143.301 212.107C142.467 211.867 141.862 211.495 141.484 210.994C141.107 210.486 140.918 209.874 140.918 209.158C140.918 208.175 141.289 207.374 142.031 206.756C142.773 206.137 143.76 205.828 144.99 205.828C145.596 205.828 146.204 205.903 146.816 206.053C147.428 206.202 147.943 206.391 148.359 206.619V208.582H148.262C147.793 208.211 147.269 207.918 146.689 207.703C146.117 207.488 145.537 207.381 144.951 207.381C144.346 207.381 143.835 207.508 143.418 207.762C143.001 208.016 142.793 208.4 142.793 208.914C142.793 209.37 142.917 209.712 143.164 209.939C143.411 210.161 143.809 210.343 144.355 210.486C144.629 210.558 144.932 210.63 145.264 210.701C145.602 210.766 145.957 210.844 146.328 210.936C147.135 211.137 147.741 211.473 148.145 211.941C148.555 212.41 148.76 213.048 148.76 213.855C148.76 214.324 148.665 214.77 148.477 215.193C148.294 215.61 148.024 215.968 147.666 216.268C147.275 216.593 146.833 216.84 146.338 217.01C145.85 217.179 145.234 217.264 144.492 217.264ZM161.055 217.244C160.306 217.244 159.619 217.13 158.994 216.902C158.369 216.668 157.832 216.316 157.383 215.848C156.934 215.379 156.585 214.79 156.338 214.08C156.09 213.364 155.967 212.524 155.967 211.561C155.967 210.604 156.094 209.777 156.348 209.08C156.608 208.383 156.953 207.798 157.383 207.322C157.812 206.847 158.346 206.482 158.984 206.229C159.629 205.968 160.319 205.838 161.055 205.838C161.654 205.838 162.23 205.923 162.783 206.092C163.343 206.261 163.841 206.456 164.277 206.678V208.738H164.17C164.04 208.628 163.87 208.501 163.662 208.357C163.46 208.214 163.213 208.068 162.92 207.918C162.666 207.788 162.367 207.674 162.021 207.576C161.676 207.479 161.344 207.43 161.025 207.43C160.075 207.43 159.31 207.791 158.73 208.514C158.158 209.23 157.871 210.245 157.871 211.561C157.871 212.85 158.148 213.855 158.701 214.578C159.261 215.294 160.036 215.652 161.025 215.652C161.624 215.652 162.194 215.529 162.734 215.281C163.275 215.034 163.753 214.715 164.17 214.324H164.277V216.385C164.095 216.469 163.867 216.574 163.594 216.697C163.32 216.814 163.073 216.902 162.852 216.961C162.539 217.052 162.259 217.12 162.012 217.166C161.764 217.218 161.445 217.244 161.055 217.244ZM174.531 206.092L170.42 217H168.77L164.688 206.092H166.67L169.658 214.51L172.617 206.092H174.531Z" fill="white"/>
<path d="M125 30L146.329 95.6434H215.35L159.511 136.213L180.84 201.857L125 161.287L69.1604 201.857L90.4892 136.213L34.6496 95.6434H103.671L125 30Z" fill="#336DDC"/>
</svg>
