<svg width="100" height="50" viewBox="0 0 100 50" fill="none" xmlns="http://www.w3.org/2000/svg">
<g clip-path="url(#clip0_106_96)">
<path d="M51.6281 16.5612L56.3857 16.1471C56.4942 17.1944 56.6932 17.9737 57.0188 18.5339C57.5434 19.4106 58.267 19.849 59.2258 19.849C59.9313 19.849 60.492 19.6298 60.8719 19.1671C61.2337 18.8018 61.4508 18.2173 61.4508 17.6084C61.4508 17.0239 61.2518 16.4637 60.9081 16.0984C60.5463 15.66 59.6961 15.2217 58.3575 14.832C56.1686 14.1744 54.5948 13.2976 53.6722 12.1773C52.7496 11.1301 52.225 9.59574 52.2612 7.96398C52.2612 6.84366 52.5145 5.72335 52.9848 4.79788C53.5275 3.75063 54.2692 2.92257 55.1556 2.45983C56.1143 1.89968 57.453 1.60742 59.1353 1.60742C61.1975 1.60742 62.7714 2.11887 63.8567 3.16612C64.9421 4.18901 65.5934 5.84512 65.7923 8.1101L61.089 8.47542C60.9624 7.50124 60.7091 6.79496 60.2931 6.33222C59.877 5.86948 59.3343 5.65029 58.6288 5.65029C58.0499 5.65029 57.6158 5.82077 57.3263 6.13738C57.055 6.42964 56.8741 6.86802 56.8922 7.35511C56.8922 7.72043 57.0369 8.0614 57.254 8.28059C57.4892 8.57284 58.0499 8.84074 58.9363 9.08429C61.1252 9.71751 62.6809 10.3507 63.6397 11.0083C64.5984 11.6659 65.2858 12.4696 65.7019 13.4194C66.136 14.3936 66.3531 15.5139 66.335 16.6586C66.335 18.0224 66.0456 19.3863 65.4667 20.531C64.8698 21.7243 64.0376 22.6498 63.0608 23.21C62.0297 23.8188 60.7272 24.1354 59.1715 24.1354C56.4219 24.1354 54.5224 23.4292 53.4551 21.9922C52.3878 20.5553 51.7547 18.7531 51.6281 16.5612ZM1.13965 23.7701V1.9971H9.47902C11.0166 1.9971 12.2106 2.16758 13.0246 2.5329C13.8206 2.87386 14.5261 3.58015 14.9964 4.52998C15.521 5.57722 15.7742 6.79495 15.7562 8.0614C15.8104 10.2046 14.9964 12.2504 13.6035 13.322C13.0608 13.736 12.4638 14.0283 11.8488 14.1744C12.301 14.3449 12.7533 14.6371 13.1512 14.9781C13.4588 15.3191 13.712 15.7087 13.9472 16.1228C14.2185 16.5368 14.4537 16.9995 14.6527 17.4866L17.0767 23.7945H11.3965L8.71925 17.097C8.37554 16.2445 8.08611 15.6844 7.81476 15.4165C7.45297 15.0755 7.01881 14.905 6.58466 14.905H6.15051V23.7458H1.13965V23.7701ZM6.15051 10.8135H8.267C8.71925 10.7648 9.1534 10.6673 9.58755 10.5212C9.91317 10.4481 10.2026 10.2046 10.4016 9.83928C10.89 8.96252 10.8177 7.72043 10.2207 6.96544C9.89508 6.60012 9.26194 6.40528 8.35745 6.40528H6.15051V10.8135ZM0 42.4258L4.7576 42.0117C4.86614 43.059 5.06512 43.8383 5.39074 44.3985C5.89725 45.2752 6.63893 45.738 7.59769 45.738C8.30318 45.738 8.86397 45.5188 9.24385 45.0561C9.60564 44.6664 9.82272 44.1062 9.82272 43.4974C9.82272 42.9129 9.62373 42.3527 9.28003 41.9874C8.91823 41.549 8.06802 41.1106 6.71129 40.7209C4.52243 40.0634 2.94863 39.1866 2.02605 38.0663C1.10347 37.019 0.578871 35.4847 0.615051 33.8529C0.615051 32.7326 0.868307 31.6123 1.33864 30.6868C1.88133 29.6396 2.62301 28.8115 3.50941 28.3488C4.46816 27.7886 5.8068 27.4964 7.48915 27.4964C9.55138 27.4964 11.1252 28.0078 12.2106 29.0551C13.2959 30.1023 13.9291 31.7341 14.1281 33.9991L9.42475 34.3644C9.29812 33.3902 9.04486 32.6839 8.6288 32.2212C8.23083 31.7584 7.67004 31.5392 6.96454 31.5636C6.38567 31.5636 5.95152 31.7341 5.66208 32.075C5.37265 32.3673 5.20984 32.8057 5.22793 33.2928C5.22793 33.6581 5.37265 33.9991 5.58973 34.2183C5.82489 34.5105 6.38567 34.7784 7.27207 35.022C9.46093 35.6552 11.0166 36.2884 11.9754 36.946C12.9342 37.6035 13.6216 38.4072 14.0376 39.3571C14.4718 40.3313 14.6889 41.4516 14.6889 42.5719C14.6889 43.9357 14.3813 45.2752 13.8206 46.4199C13.2236 47.6133 12.3915 48.5388 11.4146 49.0989C10.3835 49.7078 9.08104 50.0244 7.52533 50.0244C4.77569 50.0244 2.87627 49.3181 1.80897 47.8812C0.741679 46.4199 0.144718 44.6177 0 42.4258H0Z" fill="black"/>
<path d="M24.0593 40.7209L28.437 42.4988C28.2019 43.9844 27.7134 45.397 27.0441 46.6391C26.4291 47.735 25.615 48.5874 24.6925 49.1476C23.7518 49.7077 22.5579 50 21.1107 50C19.356 50 17.9088 49.659 16.8053 48.9771C15.6838 48.2952 14.725 47.0774 13.911 45.3483C13.0969 43.6191 12.699 41.4028 12.699 38.6995C12.699 35.095 13.4045 32.3185 14.8336 30.3945C16.2627 28.4705 18.2706 27.4963 20.8755 27.4963C22.9197 27.4963 24.5116 28.0565 25.6874 29.1524C26.8451 30.2728 27.7134 31.9776 28.2923 34.2669L23.8784 35.5821C23.7699 35.0706 23.6071 34.5592 23.39 34.1208C23.1187 33.6093 22.775 33.2197 22.3589 32.9274C21.9428 32.6352 21.4725 32.5134 21.0022 32.5134C19.8625 32.5134 18.9942 33.1223 18.3972 34.3643C17.945 35.2655 17.7098 36.7024 17.7098 38.6507C17.7098 41.0619 17.9812 42.718 18.5239 43.6191C19.0666 44.5202 19.8263 44.9586 20.8213 44.9586C21.78 44.9586 22.5036 44.5933 22.992 43.887C23.4805 43.132 23.8422 42.0847 24.0593 40.7209ZM34.28 27.8617H39.2728V35.4846H44.7359V27.8617H49.7648V49.6347H44.7359V40.8183H39.2728V49.6347H34.28V27.8617Z" fill="black"/>
<path d="M49.0774 38.7481C49.0774 35.1923 49.8191 32.4159 51.2843 30.4432C52.7496 28.4705 54.8118 27.4719 57.4348 27.4719C60.1302 27.4719 62.1924 28.4461 63.6577 30.3945C65.123 32.3428 65.8466 35.0706 65.8466 38.5776C65.8466 41.1349 65.521 43.205 64.8878 44.8368C64.2728 46.4442 63.314 47.7593 62.1382 48.6361C60.9262 49.5372 59.4247 49.9999 57.6338 49.9999C55.8068 49.9999 54.3053 49.6103 53.1114 48.8309C51.8813 48.0029 50.8683 46.7121 50.199 45.129C49.4573 43.4242 49.0774 41.3053 49.0774 38.7481ZM54.0702 38.7725C54.0702 40.9644 54.3777 42.5474 54.9746 43.5216C55.5716 44.4714 56.4037 44.9585 57.4529 44.9585C58.5202 44.9585 59.3524 44.4958 59.9493 43.546C60.5463 42.5961 60.8357 40.9157 60.8357 38.4802C60.8357 36.4344 60.5282 34.9244 59.9131 33.999C59.2981 33.0491 58.466 32.5864 57.4168 32.5864C56.4942 32.5377 55.6078 33.0735 54.9927 34.0233C54.3777 34.9731 54.0702 36.5562 54.0702 38.7725ZM70.966 38.7481C70.966 35.1923 71.7076 32.4159 73.1729 30.4432C74.6382 28.4705 76.7004 27.4719 79.3234 27.4719C82.0188 27.4719 84.0991 28.4461 85.5463 30.3945C86.9935 32.3428 87.7351 35.0706 87.7351 38.5776C87.7351 41.1349 87.4095 43.205 86.7764 44.8368C86.1613 46.4442 85.2026 47.7593 84.0267 48.6361C82.8147 49.5372 81.3133 49.9999 79.5224 49.9999C77.6953 49.9999 76.1939 49.6103 75 48.8309C73.7699 48.0029 72.7568 46.7121 72.0875 45.129C71.3458 43.4242 70.966 41.3053 70.966 38.7481ZM75.9587 38.7725C75.9587 40.9644 76.2662 42.5474 76.8632 43.5216C77.4602 44.4714 78.2923 44.9585 79.3415 44.9585C80.4088 44.9585 81.2409 44.4958 81.8379 43.546C82.4348 42.5961 82.7243 40.9157 82.7243 38.4802C82.7243 36.4344 82.4168 34.9244 81.8017 33.999C81.1867 33.0491 80.3545 32.5864 79.3053 32.5864C78.3827 32.5377 77.4783 33.0735 76.8813 34.0233C76.2662 34.9731 75.9587 36.5562 75.9587 38.7725Z" fill="black"/>
<path d="M87.2105 27.8616H92.2032V44.2766H99.9999V49.6346H87.1924V27.8616H87.2105Z" fill="black"/>
<path d="M81.7075 26.605C86.7342 21.5052 88.2842 12.8601 85.1697 7.29572C82.0551 1.73134 75.4553 1.35477 70.4287 6.45462C65.4021 11.5545 63.852 20.1995 66.9666 25.7639C70.0811 31.3283 76.6809 31.7049 81.7075 26.605Z" fill="white"/>
<path d="M54.147 13.7703L80.1225 -12.5836L98.0968 19.5287L72.1213 45.8825L54.147 13.7703Z" fill="white"/>
<path d="M81.7073 26.6053C86.7339 21.5054 88.284 12.8603 85.1694 7.29596C82.0549 1.73158 75.4551 1.35501 70.4285 6.45486C65.4018 11.5547 63.8518 20.1998 66.9663 25.7642C70.0809 31.3285 76.6807 31.7051 81.7073 26.6053Z" fill="white"/>
<path d="M61.3804 15.9146L79.5693 -2.53857L90.8587 17.6315L72.6698 36.0847L61.3804 15.9146Z" fill="white"/>
<path d="M81.7073 26.6053C86.7339 21.5054 88.284 12.8603 85.1694 7.29597C82.0549 1.73159 75.4551 1.35502 70.4285 6.45487C65.4018 11.5547 63.8518 20.1998 66.9663 25.7642C70.0809 31.3285 76.6807 31.7051 81.7073 26.6053Z" fill="white" stroke="black" stroke-width="4" stroke-miterlimit="10"/>
<path d="M61.3804 15.9146L79.5693 -2.53857L90.8587 17.6315L72.6698 36.0847L61.3804 15.9146Z" stroke="black" stroke-width="4" stroke-miterlimit="10"/>
<path d="M81.7073 26.6053C86.7339 21.5054 88.284 12.8603 85.1694 7.29596C82.0549 1.73158 75.4551 1.35501 70.4285 6.45486C65.4018 11.5547 63.8518 20.1998 66.9663 25.7642C70.0809 31.3285 76.6807 31.7051 81.7073 26.6053Z" stroke="black" stroke-width="4" stroke-miterlimit="10"/>
<path d="M61.3804 15.9146L79.5693 -2.53857L90.8587 17.6315L72.6698 36.0847L61.3804 15.9146Z" fill="white"/>
<path d="M81.7073 26.6053C86.7339 21.5054 88.284 12.8603 85.1694 7.29597C82.0549 1.73159 75.4551 1.35502 70.4285 6.45487C65.4018 11.5547 63.8518 20.1998 66.9663 25.7642C70.0809 31.3285 76.6807 31.7051 81.7073 26.6053Z" fill="white" stroke="black" stroke-width="4" stroke-miterlimit="10"/>
<path d="M61.3804 15.9146L79.5693 -2.53857L90.8587 17.6315L72.6698 36.0847L61.3804 15.9146Z" stroke="black" stroke-width="4" stroke-miterlimit="10"/>
<path d="M54.147 13.7703L80.1225 -12.5836L98.0968 19.5287L72.1213 45.8825L54.147 13.7703Z" stroke="black" stroke-width="4" stroke-miterlimit="10"/>
<path d="M81.7073 26.6053C86.7339 21.5054 88.284 12.8603 85.1694 7.29596C82.0549 1.73158 75.4551 1.35501 70.4285 6.45486C65.4018 11.5547 63.8518 20.1998 66.9663 25.7642C70.0809 31.3285 76.6807 31.7051 81.7073 26.6053Z" stroke="black" stroke-width="4" stroke-miterlimit="10"/>
<path d="M70.9841 14.9295L72.7931 13.2247L75.0181 17.4867C75.398 18.1686 75.6875 18.8993 75.9045 19.703C76.0312 20.3119 75.995 20.9694 75.8141 21.5539C75.5789 22.2846 75.199 22.8934 74.6925 23.3318C74.0956 23.892 73.589 24.2086 73.1549 24.306C72.7388 24.4034 72.3047 24.306 71.9067 24.0625C71.4725 23.7702 71.0927 23.3562 70.8032 22.8204L72.3589 20.872C72.4856 21.1399 72.6484 21.3835 72.8293 21.5783C72.9559 21.7001 73.1006 21.7731 73.2634 21.7731C73.3901 21.7731 73.5167 21.7001 73.6071 21.6026C73.788 21.4565 73.9147 21.1643 73.8966 20.872C73.8423 20.458 73.7157 20.0439 73.5167 19.7273L70.9841 14.9295ZM76.411 17.6328L78.0572 15.8793C78.2381 16.1716 78.4733 16.3908 78.7265 16.5125C79.0883 16.6587 79.4682 16.5612 79.7757 16.2446C79.9928 16.0498 80.1737 15.7819 80.2461 15.4409C80.3546 15.0025 80.1737 14.5155 79.8481 14.3693C79.7938 14.345 79.7395 14.3206 79.6853 14.3206C79.4682 14.2963 79.0883 14.418 78.5275 14.7346C77.605 15.2461 76.8814 15.4409 76.3387 15.3679C75.8141 15.2948 75.3257 14.9295 75.0362 14.3206C74.8191 13.9066 74.7106 13.4195 74.6925 12.9324C74.6925 12.3722 74.8011 11.8121 75.0362 11.3494C75.3799 10.6918 75.796 10.1316 76.3025 9.69324C77.0623 8.98696 77.7316 8.646 78.3105 8.646C78.8893 8.646 79.432 9.01131 79.9385 9.76631L78.3105 11.4955C77.9848 10.9353 77.3698 10.8136 76.9537 11.2519L76.8995 11.325C76.7186 11.4711 76.5919 11.6903 76.5196 11.9582C76.4653 12.1531 76.5015 12.3723 76.5919 12.5427C76.6643 12.6645 76.7728 12.7619 76.8995 12.7619C77.0442 12.7863 77.2974 12.6889 77.6592 12.4697C78.5637 11.9582 79.2511 11.666 79.7215 11.5685C80.1194 11.4711 80.5355 11.5198 80.9154 11.739C81.2591 11.9339 81.5485 12.2748 81.7475 12.6889C82.0008 13.176 82.1455 13.7605 82.1636 14.3693C82.1817 15.0025 82.055 15.6114 81.8018 16.1472C81.4762 16.8048 81.0601 17.3649 80.5717 17.8033C79.5767 18.7288 78.7627 19.1185 78.1115 18.9723C77.406 18.8262 76.8271 18.3391 76.411 17.6328Z" fill="black"/>
</g>
<defs>
<clipPath id="clip0_106_96">
<rect width="100" height="50" fill="white"/>
</clipPath>
</defs>
</svg>
